<?xml version="1.0" standalone="no"?>
<!DOCTYPE svg PUBLIC "-//W3C//DTD SVG 20010904//EN"
 "http://www.w3.org/TR/2001/REC-SVG-20010904/DTD/svg10.dtd">
<svg version="1.0" xmlns="http://www.w3.org/2000/svg"
 width="628.000000pt" height="786.000000pt" viewBox="0 0 628.000000 786.000000"
 preserveAspectRatio="xMidYMid meet">
<metadata>
Created by potrace 1.15, written by Peter Selinger 2001-2017
</metadata>
<g transform="translate(0.000000,786.000000) scale(0.100000,-0.100000)"
fill="#000000" stroke="none">
<path d="M1434 7802 c-126 -81 -178 -118 -195 -138 -12 -15 -15 -266 -19
-1798 l-5 -1781 -100 -5 c-84 -5 -109 -11 -159 -35 -76 -39 -157 -126 -188
-202 -23 -58 -23 -61 -26 -580 l-3 -523 -94 0 c-85 0 -97 -2 -122 -24 l-28
-24 -3 -283 c-3 -288 0 -322 36 -351 11 -9 77 -14 236 -18 l221 -5 5 -155 c6
-162 9 -178 57 -221 63 -60 66 -60 392 -57 l298 3 42 29 c68 48 75 69 81 246
l5 155 1285 0 1285 0 5 -150 c6 -173 18 -207 84 -252 l41 -28 310 0 310 0 40
27 c71 49 79 72 85 248 l5 155 222 5 c215 5 223 6 245 28 23 22 23 26 26 318
l3 295 -30 29 c-28 29 -33 30 -115 30 -47 0 -89 -1 -93 -2 -5 -2 -10 233 -13
522 -5 521 -5 525 -28 583 -31 75 -113 164 -188 202 -48 24 -73 30 -158 34
l-101 6 -5 1781 c-4 1532 -7 1783 -19 1798 -17 20 -69 57 -195 138 -104 67
-134 72 -177 29 l-29 -29 0 -565 c0 -310 -3 -567 -7 -570 -3 -4 -23 39 -44 94
-56 149 -102 224 -185 305 -52 52 -95 82 -156 112 -154 76 -99 72 -1118 72
-1020 0 -964 4 -1119 -73 -64 -31 -103 -59 -161 -116 -84 -84 -129 -161 -184
-312 -22 -62 -35 -86 -39 -74 -4 9 -7 266 -7 572 l0 555 -29 29 c-43 43 -73
38 -177 -29z m3096 -2157 l0 -465 -1377 3 -1378 2 -3 463 -2 462 1380 0 1380
0 0 -465z m-650 -1150 c19 -12 48 -40 65 -64 l30 -43 3 -615 c2 -420 -1 -632
-8 -667 -12 -57 -48 -104 -100 -132 -33 -18 -68 -19 -720 -19 l-685 0 -41 23
c-57 33 -91 90 -99 165 -3 34 -5 328 -3 652 3 589 3 590 25 626 12 19 31 43
42 53 50 45 58 46 776 43 665 -2 681 -2 715 -22z m-2078 -1160 c14 -11 38 -38
53 -60 23 -34 26 -48 23 -97 -5 -76 -43 -130 -107 -155 -65 -25 -407 -26 -461
-1 -51 24 -81 60 -96 118 -22 84 14 165 91 209 14 7 92 10 245 8 207 -2 227
-4 252 -22z m3191 14 c77 -40 115 -124 93 -209 -15 -58 -45 -95 -96 -117 -47
-21 -332 -30 -414 -13 -69 14 -128 62 -147 117 -25 78 10 171 81 212 32 19 52
21 248 21 139 0 221 -4 235 -11z"/>
<path d="M2505 4386 c-35 -15 -50 -32 -58 -65 -8 -33 18 -85 49 -100 18 -8
206 -11 660 -11 l636 0 29 29 c52 52 31 131 -40 151 -58 16 -1238 13 -1276 -4z"/>
<path d="M2480 3993 c-52 -47 -34 -136 31 -154 13 -4 300 -7 637 -8 654 -1
666 0 691 47 20 38 13 82 -18 113 l-29 29 -641 0 -641 0 -30 -27z"/>
<path d="M2487 3629 c-48 -28 -51 -114 -6 -151 20 -17 67 -18 668 -18 636 0
648 0 669 20 41 39 41 101 0 140 -21 20 -32 20 -667 20 -440 -1 -652 -4 -664
-11z"/>
<path d="M2511 3261 c-62 -17 -83 -104 -36 -150 l25 -26 651 0 651 0 24 28
c32 37 32 87 0 124 l-24 28 -634 2 c-348 1 -644 -2 -657 -6z"/>
<path d="M209 696 c-62 -16 -133 -60 -160 -97 -24 -34 -35 -100 -25 -154 4
-20 26 -59 50 -89 50 -60 66 -88 66 -111 0 -27 -46 -64 -94 -76 -57 -14 -59
-32 -13 -109 42 -70 71 -76 163 -30 80 39 129 95 145 165 15 66 2 110 -55 185
-55 72 -65 91 -66 117 0 27 44 53 90 53 16 0 30 3 30 8 0 19 -65 152 -74 151
-6 0 -32 -6 -57 -13z"/>
<path d="M1388 671 c-50 -130 -228 -628 -228 -638 0 -10 26 -13 100 -13 l100
0 11 44 c13 51 23 56 116 56 86 0 107 -10 122 -59 l12 -41 104 0 c64 0 105 4
105 10 0 24 -235 637 -251 655 -5 5 -48 10 -95 11 -84 2 -86 1 -96 -25z"/>
<path d="M5183 683 c-60 -21 -137 -94 -170 -160 -22 -46 -28 -74 -31 -149 -7
-165 47 -270 171 -333 61 -31 76 -35 150 -35 62 0 93 5 128 20 53 25 119 80
119 101 0 8 -18 41 -41 74 -39 58 -41 60 -62 45 -49 -36 -98 -56 -134 -56
-112 0 -178 137 -120 250 43 86 132 102 221 41 26 -18 53 -30 60 -28 7 3 28
35 47 72 l34 67 -44 39 c-25 23 -64 45 -94 54 -64 19 -179 18 -234 -2z"/>
<path d="M420 355 l0 -335 97 0 96 0 -6 146 c-3 80 -4 144 -2 142 3 -2 33 -69
68 -149 60 -138 64 -144 93 -147 l31 -3 58 143 c32 79 61 150 66 158 5 8 6
-53 2 -137 l-6 -153 101 0 102 0 0 335 0 335 -91 0 -91 0 -81 -170 c-45 -94
-86 -169 -91 -167 -5 2 -44 78 -85 170 l-75 167 -93 0 -93 0 0 -335z"/>
<path d="M1903 683 l-31 -4 0 -330 0 -329 100 0 101 0 -6 111 -7 110 41 -3 42
-3 43 -105 42 -105 101 -3 c87 -2 101 -1 101 13 0 9 -24 68 -54 130 l-54 113
35 34 c47 44 63 85 63 161 0 89 -28 140 -100 181 l-55 31 -165 1 c-91 1 -179
0 -197 -3z m297 -169 c69 -68 0 -159 -106 -140 l-34 7 0 73 c0 40 3 76 8 80
14 15 112 0 132 -20z"/>
<path d="M2456 634 c-3 -27 -9 -65 -12 -84 l-7 -33 83 6 83 5 -7 -254 -6 -254
104 0 105 0 -6 256 -6 256 74 -4 74 -3 3 81 3 80 -240 0 -239 -1 -6 -51z"/>
<path d="M3206 660 c-3 -14 -8 -52 -12 -84 l-7 -59 75 6 75 5 6 -71 c2 -40 2
-154 -1 -254 l-5 -183 102 0 101 0 0 256 0 256 73 -4 72 -3 -1 80 0 80 -237 0
-236 0 -5 -25z"/>
<path d="M3770 683 l-35 -4 -1 -329 -1 -330 103 0 104 0 -7 111 -6 110 39 -3
39 -3 45 -107 45 -108 102 0 c57 0 103 3 103 7 0 3 -25 61 -55 128 l-56 121
40 42 c30 31 42 55 51 97 27 131 -25 224 -146 261 -44 13 -266 17 -364 7z
m275 -157 c27 -11 35 -22 40 -49 4 -20 4 -45 0 -57 -10 -31 -69 -53 -122 -45
l-43 6 0 64 c0 35 3 70 6 79 8 20 72 21 119 2z"/>
<path d="M4346 409 c5 -196 11 -292 19 -309 34 -67 93 -89 237 -90 124 0 194
13 240 44 58 38 61 55 70 351 4 148 4 273 0 277 -5 5 -49 5 -100 2 l-92 -7 0
-232 c0 -229 0 -232 -23 -253 -31 -30 -108 -31 -137 -2 -22 22 -21 7 -20 298
l1 192 -39 0 c-22 0 -67 3 -101 6 l-62 7 7 -284z"/>
<path d="M5599 686 c-1 -1 -2 -151 -3 -334 l-1 -333 100 3 100 3 -4 112 c-3
106 -2 112 19 123 12 6 24 9 28 6 3 -4 35 -59 71 -124 l66 -117 98 -3 c83 -2
98 0 104 14 8 20 -21 79 -103 215 l-64 105 43 46 c48 49 103 167 113 241 l6
43 -92 0 -93 -1 -33 -88 c-17 -48 -39 -99 -48 -112 -22 -34 -60 -57 -88 -53
-23 3 -23 5 -24 128 l0 125 -97 1 c-53 0 -97 0 -98 0z"/>
</g>
</svg>
