<?xml version="1.0" encoding="iso-8859-1"?>
<!-- Generator: Adobe Illustrator 19.0.0, SVG Export Plug-In . SVG Version: 6.00 Build 0)  -->
<svg version="1.1" id="Layer_1" xmlns="http://www.w3.org/2000/svg" xmlns:xlink="http://www.w3.org/1999/xlink" x="0px" y="0px"
	 viewBox="0 0 496.16 496.16" style="enable-background:new 0 0 496.16 496.16;" xml:space="preserve">
<path style="fill:#A3D5E0;" d="M248.083,0.004C111.071,0.004,0,111.064,0,248.087c0,137,111.07,248.07,248.083,248.07
	c137.006,0,248.076-111.07,248.076-248.07C496.159,111.063,385.089,0.004,248.083,0.004z"/>
<path style="fill:#81B23B;" d="M0.001,248.086c0,137,111.07,248.07,248.083,248.07c137.006,0,248.076-111.07,248.076-248.07H0.001z"
	/>
<path style="fill:#A37938;" d="M351.422,396.523c-4.902-0.68-20.612,9.5-16.101-14.553c0,0,38.566-91.825,34.06-151.944
	l-1.506-28.559l-51.101-46.595l-31.559,39.586c0,0-200.403,12.018-172.349,178.354c0,0,20.042,66.135,96.195,32.066
	c0,0,80.461-31.711,100.506-47.738c0,0-6.184,48.106,19.875,62.134c0,0,27.891,10.024,35.914-2.003
	C365.356,417.271,373.717,399.621,351.422,396.523z"/>
<path style="fill:#966C35;" d="M344.694,98.387c-3-33-51.721-88.977-61-85c-14,6,17.28,114.57,26,113
	C319.325,124.641,346.688,120.319,344.694,98.387z"/>
<g>
	<path style="fill:#A37938;" d="M316.575,103.497c-3.881-26.11-54.519-84.583-61.439-79.41c-12.442,9.3,3.705,110.635,40.558,112.3
		C305.477,136.829,319.346,122.137,316.575,103.497z"/>
	<path style="fill:#A37938;" d="M402.877,156.747C381.878,121.498,375.008,93,340.63,93s-62.247,28.541-62.247,63.747
		s27.869,63.747,62.247,63.747C375.008,220.493,420.895,186.992,402.877,156.747z"/>
</g>
<path style="fill:#564030;" d="M342.548,128.769c-6.441,0-11.65,4.95-11.65,11.055c0,6.103,5.208,11.052,11.65,11.052
	c6.447,0,11.65-4.949,11.65-11.052C354.198,133.719,348.995,128.769,342.548,128.769z"/>
<path style="fill:#AD844E;" d="M402.805,156.681l-13.86,4.713c0,0-0.521,15.915,15.05,18.523c0,0,1.538-1.104,1.716-1.757
	C406.594,174.929,407.416,165.338,402.805,156.681z"/>
<g>
	<path style="fill:#A37938;" d="M402.805,156.681l-13.192,4.021c0,0,1.679,14.745,16.098,17.458
		C405.71,178.16,408.349,167.088,402.805,156.681z"/>
	<path style="fill:#A37938;" d="M175.226,392.497l-12.077,22.295c0,0,40.204,1.001,47.965,5.074c13.347,7.002,49.028,1.9,49.028,1.9
		c9.838-0.937,14.682-6.414,14.947-13.014C276.019,385.53,175.226,392.497,175.226,392.497z"/>
	<path style="fill:#A37938;" d="M124.264,339.215c-12.729-7.262-27.168-5.921-32.249,2.988c-5.081,8.904,1.122,22.012,13.844,29.273
		c12.732,7.257,27.161,5.916,32.249-2.99C143.184,359.579,136.986,346.47,124.264,339.215z"/>
</g>
<path style="fill:#966C35;" d="M192.877,288.763c0,0,87.788,26.475,45.984,103.58C238.861,392.344,295.063,314.31,192.877,288.763z"
	/>
<g>
</g>
<g>
</g>
<g>
</g>
<g>
</g>
<g>
</g>
<g>
</g>
<g>
</g>
<g>
</g>
<g>
</g>
<g>
</g>
<g>
</g>
<g>
</g>
<g>
</g>
<g>
</g>
<g>
</g>
</svg>
